<svg xmlns="http://www.w3.org/2000/svg" clip-rule="evenodd" fill-rule="evenodd" image-rendering="optimizeQuality" shape-rendering="geometricPrecision" text-rendering="geometricPrecision" viewBox="0 0 23.64 23.83" style="fill: rgb(0, 0, 0);" original_string_length="3435"><g><g id="__id128_sdc47kzuwn"><path d="M20.63 8.92c0.16,-0.22 0.29,-0.46 0.41,-0.72 0.74,-1.65 1.58,-2.91 2.6,-3.78 -0.72,-0.18 -1.46,0.08 -2.22,0.78 0.16,-0.62 0.26,-1.34 0.32,-2.17 -1.11,0.85 -1.66,1.86 -1.55,3.03 0.07,0.72 0.03,1.29 -0.14,1.73 -0.12,0.34 -0.32,0.59 -0.59,0.77 -0.21,0.14 -0.47,0.22 -0.78,0.25 0.27,-0.33 0.36,-0.67 0.29,-1.06 -0.07,-0.42 -0.31,-0.89 -0.67,-1.44 -0.32,-0.48 -0.52,-0.92 -0.61,-1.32 -0.32,-1.32 0.53,-2.2 2.38,-2.53 -0.46,-0.13 -1.03,-0.23 -1.71,-0.32l0.38 -2.13c-2.04,1.39 -3.18,2.6 -3.3,3.51 -0.04,0.35 0.06,0.65 0.32,0.91 0.27,0.26 0.51,0.51 0.72,0.75 0.49,0.57 0.8,1.12 0.81,1.76 -1.68,-1.75 -4.04,-2.83 -6.66,-2.83 -5.1,0 -9.23,4.13 -9.23,9.23 0,5.1 4.13,9.23 9.23,9.23 5.1,0 9.23,-4.13 9.23,-9.23 0,-1.14 -0.21,-2.22 -0.58,-3.23 0.24,-0.13 0.47,-0.28 0.69,-0.46 0.25,-0.21 0.47,-0.45 0.66,-0.72z" style="fill: rgb(255, 69, 34);"/></g><g id="__id129_sdc47kzuwn"><path d="M7.56 14.5c0.18,-2.1 -2.29,-3.28 -3.27,-1.59 0.43,-0.18 0.73,-0.22 0.9,-0.12 -0.7,0.5 -0.9,1.44 -0.47,2.18 0.43,0.74 1.36,1.02 2.13,0.66 -0.45,0.05 -0.86,-0.25 -0.95,-0.69 -0.08,-0.44 0.19,-0.88 0.63,-0.99 0.44,-0.11 0.89,0.13 1.03,0.56z" style="fill: rgb(255, 69, 34);"/></g><g id="__id130_sdc47kzuwn"><path d="M15.17 12.16c-1.17,-2.03 -4.14,-0.6 -3.93,1.92 0.17,-0.52 0.72,-0.81 1.24,-0.67 0.53,0.14 0.85,0.66 0.75,1.19 -0.1,0.53 -0.6,0.9 -1.14,0.83 0.93,0.44 2.04,0.09 2.56,-0.79 0.52,-0.89 0.27,-2.03 -0.56,-2.62 0.21,-0.12 0.57,-0.07 1.08,0.15z" style="fill: rgb(255, 69, 34);"/></g><g id="__id131_sdc47kzuwn"><path d="M10.99 16.67c-0.5,-0.56 -1.22,-0.86 -1.96,-0.82 -0.75,0.04 -1.43,0.42 -1.87,1.02 1.11,-0.87 2.64,-0.95 3.83,-0.2z" style="fill: rgb(240, 241, 231);"/></g><g id="__id132_sdc47kzuwn"><path d="M9.03 15.54c1.31,-0.04 2.35,1.29 5.05,2.35 3.07,1.21 3.84,-2.26 3.84,-4.5 0,-0.15 -0.01,-0.31 -0.02,-0.46 -0.21,-2.04 -1.48,-5.12 -3.82,-4.04 -2.54,1.17 -4.16,2.85 -5.81,3.21 -0.79,0.17 -1.78,-0.55 -2.84,-1.37 -2,-1.55 -3.01,0.15 -2.71,3.4 0.1,1.14 0.74,4.68 2.71,3.75 1.42,-0.67 1.47,-2.28 3.6,-2.35zm2.21 -1.46c-0.21,-2.52 2.76,-3.95 3.93,-1.92 -0.51,-0.22 -0.87,-0.27 -1.08,-0.15 0.84,0.6 1.08,1.73 0.56,2.62 -0.52,0.89 -1.63,1.23 -2.56,0.79 0.54,0.07 1.04,-0.3 1.14,-0.83 0.1,-0.53 -0.23,-1.06 -0.75,-1.19 -0.53,-0.14 -1.07,0.16 -1.24,0.67zm-4.71 -0.14c-0.44,0.11 -0.71,0.55 -0.63,0.99 0.08,0.44 0.5,0.75 0.95,0.69 -0.77,0.36 -1.7,0.08 -2.13,-0.66 -0.43,-0.74 -0.23,-1.68 0.47,-2.18 -0.17,-0.1 -0.47,-0.06 -0.9,0.12 0.97,-1.69 3.44,-0.5 3.27,1.59 -0.14,-0.43 -0.59,-0.67 -1.03,-0.56z" style="fill: rgb(240, 241, 231);"/></g><g id="__id133_sdc47kzuwn"><path d="M3.69 20.14c-1.75,-1.75 -2.84,-4.17 -2.84,-6.85 0,-2.67 1.08,-5.1 2.84,-6.85 1.75,-1.75 4.17,-2.84 6.85,-2.84 2.26,0 4.35,0.78 6,2.08 -0.08,-0.11 -0.17,-0.23 -0.27,-0.33 -0.22,-0.26 -0.46,-0.5 -0.71,-0.74 -0.23,-0.23 -0.37,-0.5 -0.41,-0.81 -1.39,-0.68 -2.96,-1.06 -4.61,-1.06 -2.91,0 -5.55,1.18 -7.45,3.09 -1.91,1.91 -3.09,4.54 -3.09,7.45 0,2.91 1.18,5.55 3.09,7.45 1.91,1.91 4.54,3.09 7.45,3.09 2.91,0 5.55,-1.18 7.45,-3.09 1.91,-1.91 3.09,-4.54 3.09,-7.45 0,-1.3 -0.23,-2.54 -0.66,-3.69 -0.09,0.09 -0.18,0.17 -0.28,0.25 -0.14,0.11 -0.28,0.22 -0.43,0.32 0.33,0.98 0.51,2.03 0.51,3.12 0,2.67 -1.08,5.1 -2.84,6.85 -1.75,1.75 -4.17,2.84 -6.85,2.84 -2.67,0 -5.1,-1.08 -6.85,-2.84z" style="fill: rgb(255, 69, 34);"/></g></g></svg>